# xmcd
#
# Track frame offsets:
#	150
#	17189
#	37229
#	49779
#	66057
#	86087
#	99262
#	120560
#	132338
#	151081
#	164411
#	184202
#	200612
#	211080
#	226692
#	241119
#	255801
#	268457
#
# Disc length: 3731 seconds
#
# Revision: 0
# Processed by: cddbd v1.5.2PL0 Copyright (c) Steve Scherf et al.
# Submitted via: EasyCDDAExtractor 9.0.0.1
#
DISCID=f00e9112
DTITLE=Slim Lightfoot - Original Nugget Blues
DYEAR=2007
DGENRE=Blues
TTITLE0=Rag Mama
TTITLE1=Doing The Do
TTITLE2=Marching My Way Back Home
TTITLE3=Standing On The Banks Of The Mighty Blues
TTITLE4=Welfare State Blues
TTITLE5=Dancehall Crazy
TTITLE6=Slingback
TTITLE7=Ode To Blind Death Joe
TTITLE8=Rye And Dry
TTITLE9=Rag'n'Drones
TTITLE10=Bad Storm A Coming
TTITLE11=What In The World Did I Do?
TTITLE12=Chicken Legs
TTITLE13=Forbidden Love
TTITLE14=How Do You Live With Yourself?
TTITLE15=Slims Jitterbug Blues
TTITLE16=I Got Lazy In My Head
TTITLE17=Country Shack (Revisited)
EXTD=
EXTT0=
EXTT1=
EXTT2=
EXTT3=
EXTT4=
EXTT5=
EXTT6=
EXTT7=
EXTT8=
EXTT9=
EXTT10=
EXTT11=
EXTT12=
EXTT13=
EXTT14=
EXTT15=
EXTT16=
EXTT17=
PLAYORDER=
